<?xml version="1.0" standalone="no"?>
<!DOCTYPE svg PUBLIC "-//W3C//DTD SVG 20010904//EN"
 "http://www.w3.org/TR/2001/REC-SVG-20010904/DTD/svg10.dtd">
<svg version="1.0" xmlns="http://www.w3.org/2000/svg"
 width="1024.000000pt" height="1024.000000pt" viewBox="0 0 1024.000000 1024.000000"
 preserveAspectRatio="xMidYMid meet">

<g transform="translate(0.000000,1024.000000) scale(0.100000,-0.100000)"
fill="#000000" stroke="none">
<path d="M1333 6070 c-60 -36 -68 -65 -67 -250 1 -149 3 -174 27 -253 52 -170
129 -292 279 -439 195 -192 384 -342 718 -568 226 -153 368 -258 405 -300 30
-33 69 -50 116 -50 35 0 48 6 79 38 49 49 65 120 56 249 -17 228 -107 435
-249 572 l-35 33 50 62 c143 176 223 389 235 627 7 142 -6 205 -52 254 -27 29
-40 35 -73 35 -38 0 -50 -8 -142 -90 -103 -92 -269 -220 -397 -305 -40 -26
-73 -49 -73 -50 0 -5 168 -125 175 -125 8 0 256 169 304 208 l34 27 -8 -45
c-23 -141 -107 -319 -193 -412 l-25 -27 -66 55 c-128 108 -308 243 -503 377
-237 163 -328 232 -431 326 -85 78 -108 85 -164 51z m260 -397 c58 -43 175
-129 261 -192 86 -63 156 -117 156 -120 0 -3 -81 -5 -179 -3 l-179 3 -46 69
c-26 38 -57 98 -71 134 -23 62 -56 186 -49 186 2 0 50 -35 107 -77z m743 -565
l75 -63 -202 -3 -201 -2 -42 34 c-22 19 -58 49 -79 67 l-39 34 207 -2 207 -3
74 -62z m272 -275 c48 -69 112 -236 112 -295 0 -17 -125 67 -394 264 l-80 58
172 0 171 0 19 -27z"/>
<path d="M5068 5651 c-200 -64 -338 -264 -338 -486 1 -284 189 -492 465 -512
145 -10 279 40 381 141 96 97 144 220 144 371 0 227 -131 415 -338 484 -81 28
-231 28 -314 2z m259 -172 c125 -46 204 -194 189 -353 -17 -182 -127 -291
-292 -290 -157 0 -260 97 -285 267 -23 162 56 327 176 371 47 17 172 20 212 5z"/>
<path d="M3480 5165 l0 -497 253 5 c280 5 324 13 399 70 143 109 120 357 -40
428 -37 16 -40 25 -13 34 32 10 89 81 102 127 24 92 -13 208 -84 259 -74 54
-119 62 -379 67 l-238 4 0 -497z m444 311 c46 -19 66 -52 66 -107 0 -92 -49
-119 -212 -119 l-98 0 0 120 0 120 105 0 c68 0 118 -5 139 -14z m43 -400 c87
-45 82 -175 -9 -216 -35 -16 -66 -20 -160 -20 l-118 0 0 131 0 132 128 -5 c92
-3 136 -9 159 -22z"/>
<path d="M4380 5165 l0 -495 100 0 100 0 0 495 0 495 -100 0 -100 0 0 -495z"/>
<path d="M6190 5570 l0 -90 140 0 140 0 0 -405 0 -405 100 0 100 0 0 405 0
405 140 0 140 0 0 90 0 90 -380 0 -380 0 0 -90z"/>
<path d="M7060 5165 l0 -495 100 0 100 0 2 188 3 187 67 3 67 3 96 -191 95
-190 105 0 c61 0 105 4 105 10 0 5 -45 95 -99 200 l-99 191 39 19 c100 52 150
134 151 249 2 173 -89 284 -252 310 -36 6 -158 11 -272 11 l-208 0 0 -495z
m449 307 c54 -27 76 -65 76 -127 0 -46 -4 -58 -29 -84 -39 -40 -80 -51 -198
-51 l-98 0 0 140 0 140 108 0 c82 0 115 -4 141 -18z"/>
<path d="M7960 5165 l0 -495 100 0 100 0 0 495 0 495 -100 0 -100 0 0 -495z"/>
<path d="M8290 5656 c0 -2 68 -111 151 -241 l150 -236 -155 -250 c-86 -137
-156 -251 -156 -254 0 -3 49 -5 110 -5 l109 0 102 170 c63 105 106 167 111
162 6 -6 54 -81 107 -168 l97 -159 112 -3 c62 -1 112 0 112 3 0 3 -70 116
-155 252 -90 143 -153 253 -150 262 3 8 68 115 145 238 77 122 140 225 140
228 0 3 -48 5 -107 5 l-108 -1 -95 -159 c-52 -88 -97 -160 -100 -160 -3 0 -47
72 -99 160 l-93 160 -114 0 c-63 0 -114 -2 -114 -4z"/>
<path d="M5840 5108 l0 -88 175 0 175 0 0 88 0 87 -175 0 -175 0 0 -87z"/>
<path d="M1424 4998 c-61 -82 -119 -203 -145 -303 -29 -113 -37 -293 -15 -367
28 -96 99 -139 181 -108 14 5 56 39 94 74 68 64 306 246 396 303 25 15 45 31
45 34 0 6 -126 104 -158 123 -14 9 -155 -80 -275 -172 l-70 -54 7 50 c12 96
83 267 134 324 14 16 9 23 -58 85 -40 38 -76 69 -81 71 -4 2 -29 -25 -55 -60z"/>
</g>
</svg>
